<?xml version="1.0" encoding="UTF-8" standalone="no"?>
<!-- Created with Inkscape (http://www.inkscape.org/) -->
<svg
   xmlns:svg="http://www.w3.org/2000/svg"
   xmlns="http://www.w3.org/2000/svg"
   version="1.0"
   width="716.05591"
   height="250.62233"
   id="svg2526">
  <defs
     id="defs2528">
    <clipPath
       id="clipPath77">
      <path
         d="M 274.248,618.613 L 274.248,586.917 L 364.807,586.917 L 364.807,618.613"
         id="path79" />
    </clipPath>
  </defs>
  <g
     transform="translate(309.45657,-301.54986)"
     id="layer1">
    <path
       d="M 398.32862,508.01929 C 376.8925,530.11954 345.15361,543.90155 310.76578,543.90155 C 276.36998,543.90155 244.69428,530.11954 223.25829,508.01929 C 201.82218,530.01674 170.21764,543.90155 135.91685,543.90155 C 101.52903,543.90155 69.940303,530.11954 48.49628,508.01929 C 27.05232,530.11954 -4.5364046,543.90155 -38.92423,543.90155 C -73.311992,543.90155 -104.98769,530.11954 -126.43172,508.01929 C -147.86771,530.01674 -179.47225,543.90155 -213.76519,543.90155 C -248.15308,543.90155 -279.74971,530.11954 -301.18576,508.01929 L -301.18576,335.71644 C -301.18576,321.41256 -288.8112,309.8208 -273.54266,309.8208 L 370.68552,309.8208 C 385.95406,309.8208 398.32862,321.30186 398.32862,335.60574 L 398.32862,508.01929"
       id="path71"
       style="fill:#ed1c24;fill-opacity:1;fill-rule:nonzero;stroke:none" />
    <g
       transform="matrix(7.9070649,0,0,-7.9070649,-2477.9533,5192.963)"
       id="g73">
      <g
         clip-path="url(#clipPath77)"
         id="g75">
        <path
           d="M 363.761,592.501 C 361.05,589.706 357.036,587.963 352.687,587.963 C 348.337,587.963 344.331,589.706 341.62,592.501 C 338.909,589.719 334.912,587.963 330.574,587.963 C 326.225,587.963 322.23,589.706 319.518,592.501 C 316.806,589.706 312.811,587.963 308.462,587.963 C 304.113,587.963 300.107,589.706 297.395,592.501 C 294.684,589.719 290.687,587.963 286.35,587.963 C 282.001,587.963 278.005,589.706 275.294,592.501 L 275.294,614.292 C 275.294,616.101 276.859,617.567 278.79,617.567 L 360.265,617.567 C 362.196,617.567 363.761,616.115 363.761,614.306 L 363.761,592.501 z"
           id="path81"
           style="fill:none;stroke:#ffffff;stroke-width:2.09200001;stroke-linecap:round;stroke-linejoin:round;stroke-miterlimit:4;stroke-dasharray:none;stroke-opacity:1" />
      </g>
    </g>
    <path
       d="M -193.79991,376.71457 L -193.79991,377.61597 C -193.79991,381.6723 -195.47615,383.78349 -198.54415,383.78349 C -200.22045,383.78349 -202.45024,382.88208 -203.43072,381.6723 L -204.67997,380.47833 C -207.89821,377.46574 -213.48053,375.21223 -218.77827,375.21223 C -229.11286,375.21223 -233.57238,378.51738 -233.57238,386.037 L -233.57238,394.46593 L -233.43796,394.61616 C -233.43796,396.11851 -233.15337,396.41897 -231.76167,396.41897 L -211.2429,396.41897 C -210.128,396.41897 -209.14746,396.41897 -208.87078,396.41897 C -208.03263,396.41897 -207.33674,396.26083 -206.49866,395.96827 L -205.24137,395.51757 C -204.67997,395.20919 -203.98421,395.05896 -203.56514,395.05896 C -201.88884,395.05896 -201.19302,395.96827 -201.19302,397.77108 L -201.19302,398.82272 L -201.05063,405.44094 L -201.05063,405.59117 C -201.05063,408.89632 -201.88884,410.1061 -203.7074,410.1061 C -204.26096,410.1061 -204.96462,410.1061 -205.93726,409.80564 C -208.72839,408.89632 -211.66197,408.45353 -215.85265,408.45353 L -231.48498,408.45353 C -233.43796,408.45353 -233.57238,408.60376 -233.57238,410.25634 L -233.57238,449.50701 L -233.43796,449.95771 C -233.43796,453.42101 -233.15337,455.52429 -232.1808,457.78571 L -231.48498,459.28805 C -231.34266,459.73875 -231.34266,460.33969 -231.34266,460.79039 C -231.34266,463.79508 -233.01889,464.70439 -237.90546,464.70439 L -252.69964,464.70439 C -256.04433,464.70439 -257.99737,463.34437 -257.86295,460.94062 C -257.86295,460.33969 -257.86295,459.73875 -257.57823,459.13781 L -257.30155,458.38664 C -256.32898,455.82475 -255.49083,452.0689 -255.49083,448.00467 L -255.49083,380.62066 C -255.49083,377.16527 -255.76752,374.91176 -257.02474,371.74893 C -257.86295,369.64565 -257.99737,369.04472 -257.86295,368.14331 C -257.86295,365.28095 -255.90991,364.22931 -251.02334,364.22931 L -205.3837,364.22931 C -202.73483,364.22931 -202.45024,364.22931 -200.35487,363.62838 C -199.3823,363.32791 -198.8209,363.17767 -197.98275,363.17767 C -195.19149,363.17767 -193.79991,364.68002 -193.79991,367.69261 L -193.79991,376.71457"
       id="path83"
       style="fill:#b01016;fill-opacity:1;fill-rule:nonzero;stroke:none" />
    <path
       d="M -169.88104,451.6182 L -169.88104,452.5196 C -169.88104,455.37405 -169.73871,455.97499 -168.34707,458.52897 C -167.64334,459.88898 -167.50892,460.48992 -167.50892,461.24109 C -167.50892,463.79508 -169.18515,464.70439 -174.34853,464.70439 L -188.44683,464.70439 C -191.38035,464.70439 -192.91426,463.64484 -192.91426,461.6918 C -192.91426,460.79039 -192.77199,460.18945 -192.21053,458.98758 C -190.81895,457.18477 -190.67662,456.12522 -190.67662,452.21913 L -190.67662,451.31773 L -190.81895,414.01219 L -190.81895,413.11079 C -190.81895,409.80564 -191.51477,407.39398 -192.77199,404.68976 C -193.04868,403.93859 -193.19107,403.48789 -193.04868,402.73672 C -193.04868,400.32506 -191.09569,398.82272 -187.60862,398.82272 L -172.94898,398.82272 C -169.73871,398.82272 -168.20468,399.87436 -168.20468,401.97764 C -168.20468,402.57858 -168.34707,402.88695 -168.76614,403.93859 C -169.88104,406.49258 -169.88104,407.39398 -169.88104,410.1061 L -169.88104,451.6182"
       id="path85"
       style="fill:#b01016;fill-opacity:1;fill-rule:nonzero;stroke:none" />
    <path
       d="M -151.13339,464.70439 L -151.68682,464.70439 C -161.46002,464.70439 -163.55539,463.94531 -163.55539,460.18945 C -163.55539,454.62288 -160.6218,449.50701 -157.4116,449.50701 C -155.59291,449.50701 -154.47808,450.10795 -152.66736,452.0689 C -150.15291,454.77311 -148.05748,455.82475 -144.57052,455.82475 C -139.40715,455.82475 -137.31184,454.47265 -137.44626,451.01726 C -137.44626,448.90607 -138.00766,447.7042 -141.08351,444.69951 L -145.26635,440.48505 C -145.97008,439.73388 -147.78079,438.0813 -150.57199,435.51941 C -160.76413,426.34722 -163.13631,423.04206 -163.13631,416.87455 C -163.13631,405.7414 -151.54456,397.62085 -135.63554,397.62085 C -124.05163,397.62085 -116.51619,401.83531 -116.37393,408.29539 C -116.37393,412.05915 -119.58414,415.07174 -123.77494,415.07174 C -126.14706,415.07174 -128.10005,414.16243 -129.77641,412.35962 L -131.87172,410.25634 C -133.26342,408.754 -135.08205,408.00282 -137.31184,408.00282 C -140.10303,408.00282 -142.05608,409.35493 -142.05608,411.45821 C -142.05608,413.26102 -140.52204,415.66477 -137.87324,417.92619 L -133.95924,421.23134 C -126.98521,427.24862 -119.72653,434.61801 -116.2316,439.88411 C -114.55531,442.58833 -113.58274,445.75115 -113.58274,449.20654 C -113.58274,459.43038 -120.56468,464.70439 -134.2439,464.70439 L -151.13339,464.70439"
       id="path87"
       style="fill:#b01016;fill-opacity:1;fill-rule:nonzero;stroke:none" />
    <path
       d="M -61.143082,464.70439 L -61.427737,464.70439 C -64.218931,464.70439 -65.895228,463.64484 -65.895228,461.84203 C -65.895228,461.24109 -65.752901,460.48992 -65.476154,459.58852 L -65.199407,458.83735 C -65.05708,458.23641 -64.914752,457.78571 -64.914752,457.02663 C -64.914752,456.42569 -65.05708,455.37405 -65.333764,454.62288 C -65.476154,454.32241 -65.752901,453.57124 -66.314303,452.0689 L -77.479015,420.63041 C -79.155313,415.81501 -80.270273,414.76337 -83.480541,414.76337 C -86.975464,414.76337 -88.928509,416.56618 -88.928509,420.02947 L -88.928509,454.17218 C -88.928509,456.57592 -88.786181,457.47733 -87.948033,459.13781 C -87.528895,460.03922 -87.109884,460.94062 -87.109884,461.54156 C -87.109884,463.49461 -88.928509,464.70439 -91.300565,464.70439 L -107.35197,464.70439 C -110.14316,464.70439 -111.67707,463.49461 -111.67707,461.24109 C -111.67707,460.48992 -111.67707,460.03922 -111.11567,458.83735 C -109.72409,455.52429 -109.43944,454.62288 -109.43944,452.21913 L -109.43944,451.16749 L -109.5817,379.11832 C -109.5817,374.46106 -109.85851,372.19963 -110.83899,370.39682 C -111.39242,369.19495 -111.67707,368.59401 -111.67707,367.84284 C -111.67707,365.88189 -110.00084,364.37955 -107.48639,364.37955 L -91.015911,364.37955 C -88.367044,364.37955 -87.252148,365.58142 -87.252148,367.84284 C -87.252148,368.44378 -87.252148,369.04472 -87.386568,369.34518 C -87.386568,369.49542 -87.671222,369.94612 -88.09036,370.84753 C -88.786181,372.19963 -88.928509,372.5001 -88.928509,375.81316 L -88.786181,400.63344 C -88.786181,401.83531 -88.643854,402.27811 -88.22478,402.27811 C -87.671222,401.97764 -87.528895,402.12788 -86.975464,401.53485 C -84.176363,399.12319 -79.297704,397.47061 -74.830212,397.47061 C -67.152452,397.47061 -61.570064,402.43625 -58.083048,412.35962 L -44.119108,452.9703 C -43.146539,455.97499 -42.308454,456.87639 -40.489829,458.68711 C -39.51726,459.73875 -39.098185,460.48992 -38.955795,461.54156 C -38.955795,463.64484 -40.489829,464.70439 -43.146539,464.70439 L -61.143082,464.70439"
       id="path89"
       style="fill:#b01016;fill-opacity:1;fill-rule:nonzero;stroke:none" />
    <path
       d="M -3.2000474,420.66204 C -2.0852145,420.0611 -1.8005602,419.76063 -1.8005602,419.30202 C -1.8005602,418.70108 -2.6387091,416.74804 -3.4768579,415.2457 C -6.5527062,409.82936 -10.593153,406.97491 -15.345362,406.97491 C -21.765836,406.97491 -26.225484,412.08287 -26.225484,419.45225 C -26.225484,421.86391 -25.395242,426.37094 -24.272375,429.53376 C -24.272375,429.98447 -24.272375,429.98447 -23.995628,430.1347 C -23.995628,430.43517 -23.853364,430.43517 -23.718944,430.5854 C -23.43429,430.88587 -23.29987,430.88587 -23.157543,430.88587 C -23.023122,431.03611 -22.461721,430.88587 -21.623572,430.43517 L -3.2000474,420.66204 z M -17.717482,440.2083 C -18.697958,440.81714 -18.832378,440.81714 -18.697958,441.26785 C -18.697958,441.56832 -18.697958,441.71855 -17.994229,442.61996 C -13.669065,449.23817 -7.9443496,453.15217 -2.504289,453.15217 C 1.6864554,453.15217 5.4502816,449.98934 6.01162,446.52605 L 6.1540104,445.62464 C 6.2884305,442.16925 8.9452043,439.7655 12.43222,439.7655 C 16.20389,439.7655 18.852693,442.61996 18.852693,446.82651 C 18.995021,457.35872 7.8224011,465.62951 -5.9913046,465.62951 C -28.186436,465.62951 -44.648882,449.68887 -44.791209,428.03142 C -44.791209,408.47725 -31.11205,395.24082 -11.012291,395.24082 C 3.220426,395.24082 14.108454,401.85904 20.252307,414.34429 C 21.082486,416.1471 21.36714,417.34898 21.36714,418.25038 C 21.36714,419.00155 21.082486,419.6104 20.252307,419.90296 L 19.556422,420.21133 L -17.717482,440.2083"
       id="path91"
       style="fill:#b01016;fill-opacity:1;fill-rule:nonzero;stroke:none" />
    <path
       d="M 46.037246,452.66983 L 46.037246,453.57124 C 46.037246,455.67452 46.171603,456.27546 47.009752,457.3271 L 47.705573,458.23641 C 48.543785,459.28805 48.686049,460.03922 48.686049,461.09086 C 48.686049,463.64484 47.009752,464.70439 42.961334,464.70439 L 28.309543,464.70439 C 24.6802,464.70439 23.003902,463.64484 23.146293,461.39133 C 23.146293,460.94062 23.146293,460.33969 23.422977,459.73875 L 23.984379,458.23641 C 24.81462,455.97499 25.376022,454.02194 25.376022,451.46796 L 25.376022,450.71679 L 25.518412,410.1061 L 25.518412,409.2047 C 25.518412,408.60376 25.518412,407.85259 25.099338,407.09351 C 24.956948,406.04187 24.81462,406.19211 24.6802,405.7414 L 23.699787,404.23906 C 23.422977,403.78836 23.28065,403.17952 23.146293,402.57858 C 23.146293,400.17483 24.81462,398.82272 27.748141,398.82272 L 29.005428,398.82272 L 41.285037,398.67249 L 41.988765,398.67249 C 45.752528,398.67249 46.448413,399.57389 46.448413,404.68976 L 46.590677,404.99023 C 46.733068,405.89164 46.867488,405.89164 47.286562,405.89164 C 47.847901,405.7414 47.982321,405.7414 48.266975,405.2907 C 51.334916,400.63344 55.944735,397.77108 60.688974,397.77108 C 67.386258,397.77108 71.996077,401.83531 71.996077,407.54422 C 71.996077,413.41126 67.528585,417.92619 61.669513,417.92619 C 59.574078,417.92619 56.363809,417.47549 54.126173,416.72432 C 53.011214,416.26571 52.734467,416.26571 52.449812,416.26571 C 48.962797,416.26571 46.037246,420.93088 46.037246,426.04675 L 46.037246,452.66983"
       id="path93"
       style="fill:#b01016;fill-opacity:1;fill-rule:nonzero;stroke:none" />
    <path
       d="M 69.963961,440.98319 C 69.41053,441.28366 68.714645,441.59204 67.876496,442.34321 C 67.172767,442.79391 66.619273,443.24461 66.200261,443.54508 L 65.638797,444.14602 C 65.362113,444.74696 65.085302,444.74696 64.523964,444.74696 C 63.962499,444.44649 63.685815,444.44649 63.685815,443.84555 L 63.685815,432.56217 C 63.685815,430.00819 65.362113,428.49794 69.829604,425.94396 L 72.478408,424.44161 C 75.411992,422.78904 78.203123,421.28669 81.832466,418.42434 C 82.528287,417.8234 82.805098,417.8234 83.081782,417.8234 C 83.643247,417.97363 83.785511,417.97363 83.785511,418.57457 L 83.785511,419.17551 L 83.643247,426.84536 C 83.500856,432.11147 82.805098,433.46357 78.337543,436.01756 L 70.383099,440.68272 L 69.963961,440.98319"
       id="path95"
       style="fill:#b01016;fill-opacity:1;fill-rule:nonzero;stroke:none" />
    <path
       d="M 115.01842,416.56618 L 115.01842,417.47549 C 115.01842,418.8276 115.16081,419.12807 115.99896,419.2783 C 116.56029,419.2783 118.09427,419.42853 119.20922,419.42853 C 128.97445,419.42853 134.00334,412.20938 134.00334,398.37202 C 134.00334,381.98067 129.53579,374.91176 118.79015,374.91176 C 116.83711,374.91176 115.72215,375.21223 115.30307,375.36246 C 115.16081,375.65502 115.16081,375.81316 115.16081,376.8648 L 115.01842,416.56618 z M 114.884,450.86702 L 114.884,451.16749 C 114.884,455.22382 114.884,455.67452 115.72215,457.47733 L 116.56029,459.43038 C 116.69471,459.73875 116.69471,460.18945 116.69471,460.64016 C 116.69471,463.49461 114.59934,464.70439 109.01702,464.70439 L 95.34564,464.70439 C 92.546539,464.70439 91.154958,463.64484 91.154958,461.54156 C 91.154958,460.64016 91.297222,460.03922 91.574033,459.43038 L 92.135371,458.23641 C 92.831193,457.02663 93.384687,455.52429 93.384687,454.62288 L 93.384687,454.02194 L 93.669342,376.26387 L 93.527078,375.50479 C 93.527078,374.16059 93.108003,373.10104 92.831193,371.89917 L 92.412118,370.84753 C 91.574033,369.19495 91.431642,368.29354 91.574033,367.54237 C 91.574033,364.98048 92.688929,364.22931 96.041461,364.22931 L 96.737283,364.22931 L 126.61017,364.37955 L 127.306,364.37955 C 144.61456,364.37955 156.89423,377.76621 156.89423,396.41897 C 156.89423,411.00751 149.77787,423.48486 139.03224,427.54909 C 134.00334,429.3519 127.71716,430.25331 120.32406,430.25331 L 115.85657,430.25331 C 115.30307,430.56168 115.01842,430.56168 115.01842,431.16262 L 114.884,431.91379 L 114.884,450.86702"
       id="path97"
       style="fill:#b01016;fill-opacity:1;fill-rule:nonzero;stroke:none" />
    <path
       d="M 181.78567,452.66983 L 181.78567,453.57124 C 181.78567,455.67452 181.92009,456.27546 182.75824,457.3271 L 183.46197,458.23641 C 184.29221,459.28805 184.43454,460.03922 184.43454,461.09086 C 184.43454,463.64484 182.75824,464.70439 178.7178,464.70439 L 164.05803,464.70439 C 160.42869,464.70439 158.75239,463.64484 158.89478,461.39133 C 158.89478,460.94062 158.89478,460.33969 159.17153,459.73875 L 159.73293,458.23641 C 160.57102,455.97499 161.13242,454.02194 161.13242,451.46796 L 161.13242,450.71679 L 161.26684,410.1061 L 161.26684,409.2047 C 161.26684,408.60376 161.26684,407.85259 160.84777,407.09351 C 160.7055,406.04187 160.57102,406.19211 160.42869,405.7414 L 159.45612,404.23906 C 159.17153,403.78836 159.03705,403.17952 158.89478,402.57858 C 158.89478,400.17483 160.57102,398.82272 163.50454,398.82272 L 164.75386,398.82272 L 177.03359,398.67249 L 177.73732,398.67249 C 181.50102,398.67249 182.20481,399.57389 182.20481,404.68976 L 182.33917,404.99023 C 182.48156,405.89164 182.62382,405.89164 183.0429,405.89164 C 183.59639,405.7414 183.73878,405.7414 184.02344,405.2907 C 187.09131,400.63344 191.69323,397.77108 196.43753,397.77108 C 203.14272,397.77108 207.74463,401.83531 207.74463,407.54422 C 207.74463,413.41126 203.27714,417.92619 197.41794,417.92619 C 195.32257,417.92619 192.1123,417.47549 189.88257,416.72432 C 188.75977,416.26571 188.48296,416.26571 188.20627,416.26571 C 184.71135,416.26571 181.78567,420.93088 181.78567,426.04675 L 181.78567,452.66983"
       id="path99"
       style="fill:#b01016;fill-opacity:1;fill-rule:nonzero;stroke:none" />
    <path
       d="M 233.25282,451.6182 L 233.25282,452.5196 C 233.25282,455.37405 233.39509,455.97499 234.78673,458.52897 C 235.48255,459.88898 235.62494,460.48992 235.62494,461.24109 C 235.62494,463.79508 233.94858,464.70439 228.78527,464.70439 L 214.68703,464.70439 C 211.75351,464.70439 210.21948,463.64484 210.21948,461.6918 C 210.21948,460.79039 210.36181,460.18945 210.91536,458.98758 C 212.31491,457.18477 212.44927,456.12522 212.44927,452.21913 L 212.44927,451.31773 L 212.31491,414.01219 L 212.31491,413.11079 C 212.31491,409.80564 211.61903,407.39398 210.36181,404.68976 C 210.08506,403.93859 209.94273,403.48789 210.08506,402.73672 C 210.08506,400.32506 212.03817,398.82272 215.52512,398.82272 L 230.18482,398.82272 C 233.39509,398.82272 234.92906,399.87436 234.92906,401.97764 C 234.92906,402.57858 234.78673,402.88695 234.36766,403.93859 C 233.25282,406.49258 233.25282,407.39398 233.25282,410.1061 L 233.25282,451.6182"
       id="path101"
       style="fill:#b01016;fill-opacity:1;fill-rule:nonzero;stroke:none" />
    <path
       d="M 297.22091,408.29539 C 297.22091,412.35962 294.01065,415.51454 290.10462,415.51454 C 286.75993,415.51454 284.10316,414.16243 281.73104,411.15774 C 279.08217,408.00282 275.86393,406.34234 272.65366,406.34234 C 264.56474,406.34234 260.23166,413.41126 260.23166,426.49745 C 260.23166,442.73856 267.2136,454.77311 276.56772,454.77311 C 281.87336,454.77311 286.0562,451.6182 287.59011,446.35209 C 288.70501,442.58833 290.80038,440.78552 294.01065,440.78552 C 297.36324,440.78552 299.87769,443.48973 299.87769,446.95303 C 299.87769,457.3271 287.59011,465.90626 273.08064,465.90626 C 252.98095,465.90626 238.17892,451.31773 238.17892,431.01238 C 238.17892,410.40657 253.40002,396.26083 275.45276,396.26083 C 288.28593,396.26083 297.08656,400.77577 297.08656,408.00282 L 297.22091,408.29539"
       id="path103"
       style="fill:#b01016;fill-opacity:1;fill-rule:nonzero;stroke:none" />
    <path
       d="M 336.52693,421.68995 C 337.64974,421.08902 337.92655,420.78064 337.92655,420.32994 C 337.92655,419.729 337.0884,417.77596 336.25025,416.26571 C 333.18225,410.85728 329.13383,408.00282 324.38965,408.00282 C 317.96115,408.00282 313.49365,413.11079 313.49365,420.48017 C 313.49365,422.89183 314.3318,427.39886 315.45461,430.56168 C 315.45461,431.01238 315.45461,431.01238 315.73142,431.16262 C 315.73142,431.46309 315.86584,431.46309 316.00816,431.61332 C 316.28485,431.91379 316.43508,431.91379 316.5695,431.91379 C 316.70392,432.06402 317.27323,431.91379 318.10354,431.46309 L 336.52693,421.68995 z M 326.05798,441.23622 C 325.07757,441.83716 324.94315,441.83716 325.07757,442.28786 C 325.07757,442.58833 325.07757,442.73856 325.7813,443.64787 C 330.1064,450.26609 335.82321,454.17218 341.27124,454.17218 C 345.46192,454.17218 349.22568,451.01726 349.78715,447.55396 L 349.9215,446.65256 C 350.06383,443.19717 352.7127,440.78552 356.19971,440.78552 C 359.97144,440.78552 362.62816,443.64787 362.62816,447.85443 C 362.76258,458.38664 351.5978,466.65743 337.78416,466.65743 C 315.58909,466.65743 299.11861,450.71679 298.97635,429.05143 C 298.97635,409.49726 312.6555,396.26083 332.75533,396.26083 C 346.99589,396.26083 357.88392,402.88695 364.01986,415.3643 C 364.85801,417.16711 365.13469,418.37689 365.13469,419.2783 C 365.13469,420.02947 364.85801,420.63041 364.01986,420.93088 L 363.32404,421.23134 L 326.05798,441.23622"
       id="path105"
       style="fill:#b01016;fill-opacity:1;fill-rule:nonzero;stroke:none" />
    <path
       d="M 222.11961,394.59244 C 228.50068,394.59244 233.65602,389.23145 233.65602,382.61324 C 233.65602,376.00293 228.50068,370.64194 222.11961,370.64194 C 215.74658,370.64194 210.5832,376.00293 210.5832,382.61324 C 210.5832,389.23145 215.74658,394.59244 222.11961,394.59244"
       id="path107"
       style="fill:#b01016;fill-opacity:1;fill-rule:nonzero;stroke:none" />
    <path
       d="M -179.85976,394.59244 C -173.48666,394.59244 -168.31544,389.23145 -168.31544,382.61324 C -168.31544,376.00293 -173.48666,370.64194 -179.85976,370.64194 C -186.23279,370.64194 -191.40401,376.00293 -191.40401,382.61324 C -191.40401,389.23145 -186.23279,394.59244 -179.85976,394.59244"
       id="path109"
       style="fill:#b01016;fill-opacity:1;fill-rule:nonzero;stroke:none" />
    <path
       d="M -199.59579,371.21916 C -199.59579,375.28339 -201.27202,377.38667 -204.34003,377.38667 C -206.01633,377.38667 -208.24612,376.48526 -209.22659,375.28339 L -210.48375,374.08152 C -213.69409,371.06892 -219.27641,368.81541 -224.58205,368.81541 C -234.90874,368.81541 -239.37617,372.12056 -239.37617,379.64018 L -239.37617,388.06911 C -239.37617,388.06911 -238.95716,390.02216 -237.55754,390.02216 L -217.04668,390.02216 C -215.92388,390.02216 -214.95131,390.02216 -214.66659,390.02216 C -213.83635,390.02216 -213.13262,389.87193 -212.30238,389.57146 L -211.04522,389.12075 C -210.48375,388.82029 -209.78793,388.67005 -209.36892,388.67005 C -207.69262,388.67005 -206.9968,389.57146 -206.9968,391.37427 L -206.85447,399.19435 C -206.85447,402.50741 -207.69262,403.70929 -209.50334,403.70929 C -210.06474,403.70929 -210.7605,403.70929 -211.74104,403.40882 C -214.53224,402.50741 -217.45785,402.05671 -221.64853,402.05671 L -237.28086,402.05671 C -239.23384,402.05671 -239.37617,402.20695 -239.37617,403.85952 L -239.37617,443.1181 C -239.37617,443.1181 -238.95716,449.12747 -237.97662,451.38889 L -237.28086,452.89123 C -237.14644,453.34194 -237.14644,453.94287 -237.14644,454.39357 C -237.14644,457.40617 -238.81477,458.30757 -243.70133,458.30757 L -258.49552,458.30757 C -261.84811,458.30757 -263.80116,456.94756 -263.65883,454.54381 C -263.65883,453.94287 -263.65883,453.34194 -263.38208,452.741 L -263.10533,451.98983 C -262.12486,449.42794 -261.28671,445.67208 -261.28671,441.61576 L -261.28671,374.23175 C -261.28671,370.76846 -261.57136,368.51494 -262.82859,365.36002 C -263.65883,363.24884 -263.80116,362.6479 -263.65883,361.7465 C -263.65883,358.88414 -261.70578,357.8325 -256.82713,357.8325 L -211.17964,357.8325 C -208.53077,357.8325 -208.24612,357.8325 -206.15859,357.23156 C -205.17818,356.93109 -204.62468,356.78086 -203.78647,356.78086 C -200.99534,356.78086 -199.59579,358.2832 -199.59579,361.29579 L -199.59579,371.21916"
       id="path111"
       style="fill:#ffffff;fill-opacity:1;fill-rule:nonzero;stroke:none" />
    <path
       d="M -157.49067,458.30757 C -167.25583,458.30757 -169.35127,457.5564 -169.35127,453.79264 C -169.35127,448.22606 -166.41768,443.1181 -163.21538,443.1181 C -161.39676,443.1181 -160.28186,443.71904 -158.46324,445.67208 C -155.95663,448.38421 -153.86133,449.42794 -150.37431,449.42794 C -145.20309,449.42794 -143.11556,448.07583 -143.25004,444.62044 C -143.25004,442.50926 -143.81145,441.30738 -146.87932,438.3027 C -146.87932,438.3027 -153.58452,431.68448 -156.36787,429.1226 C -166.56007,419.9504 -168.93219,416.64525 -168.93219,410.47774 C -168.93219,399.34459 -157.34834,391.22403 -141.43926,391.22403 C -129.85548,391.22403 -122.31214,395.4385 -122.16975,401.90648 C -122.16975,405.66233 -125.38799,408.67493 -129.57082,408.67493 C -131.94294,408.67493 -133.90389,407.77352 -135.57228,405.9628 L -137.66766,403.85952 C -139.06714,402.35718 -140.87793,401.60601 -143.11556,401.60601 C -145.90676,401.60601 -147.85986,402.95812 -147.85986,405.0614 C -147.85986,406.86421 -146.32583,409.27586 -143.66912,411.52938 L -139.76297,414.84244 C -132.78109,420.85971 -125.52241,428.2291 -122.03533,433.4873 C -120.35903,436.19942 -119.38646,439.35434 -119.38646,442.80972 C -119.38646,453.04147 -126.36055,458.30757 -140.03978,458.30757 L -157.49067,458.30757"
       id="path113"
       style="fill:#ffffff;fill-opacity:1;fill-rule:nonzero;stroke:none" />
    <path
       d="M -67.231459,458.30757 C -70.022716,458.30757 -71.699014,457.25593 -71.699014,455.44521 C -71.699014,454.85218 -71.556687,454.09311 -71.279876,453.1917 L -71.003192,452.44053 C -70.860865,451.83959 -70.718538,451.38889 -70.718538,450.62981 C -70.718538,450.03678 -70.860865,448.97724 -71.137613,448.22606 C -71.279876,447.9256 -71.556687,447.17442 -72.110118,445.67208 L -83.282864,414.2415 C -84.959162,409.4261 -86.073995,408.37446 -89.284263,408.37446 C -92.771342,408.37446 -94.724387,410.17727 -94.724387,413.63266 L -94.724387,447.77536 C -94.724387,450.18702 -94.589904,451.08842 -93.751755,452.741 C -93.332744,453.6424 -92.913606,454.54381 -92.913606,455.14475 C -92.913606,457.1057 -94.724387,458.30757 -97.104414,458.30757 L -113.14785,458.30757 C -115.93904,458.30757 -117.47295,457.1057 -117.47295,454.85218 C -117.47295,454.09311 -117.47295,453.6424 -116.91952,452.44053 C -115.51997,449.12747 -115.24322,448.22606 -115.24322,445.82232 L -115.38555,372.72941 C -115.38555,368.06424 -115.66223,365.80282 -116.64277,364.00001 C -117.19627,362.79813 -117.47295,362.1972 -117.47295,361.44603 C -117.47295,359.49298 -115.80462,357.98273 -113.29011,357.98273 L -96.819759,357.98273 C -94.162986,357.98273 -93.055997,359.18461 -93.055997,361.44603 C -93.055997,362.04696 -93.055997,362.6479 -93.190417,362.94837 C -93.190417,363.0986 -93.467101,363.54931 -93.886175,364.45862 C -94.589904,365.80282 -94.724387,366.11119 -94.724387,369.41635 L -94.589904,394.23662 C -94.589904,395.4385 -94.44764,395.8892 -94.028566,395.8892 C -93.467101,395.58873 -93.332744,395.73897 -92.771342,395.13803 C -89.980148,392.73428 -85.093582,391.0738 -80.633934,391.0738 C -72.956174,391.0738 -67.365879,396.03944 -63.878927,405.9628 L -49.922894,446.57349 C -48.942481,449.58608 -48.112239,450.48748 -46.293615,452.2903 C -45.320982,453.34194 -44.901971,454.09311 -44.759644,455.14475 C -44.759644,457.25593 -46.293615,458.30757 -48.942481,458.30757 L -67.231459,458.30757"
       id="path115"
       style="fill:#ffffff;fill-opacity:1;fill-rule:nonzero;stroke:none" />
    <path
       d="M -9.0038963,414.26522 C -7.8810931,413.66428 -7.6043458,413.36381 -7.6043458,412.91311 C -7.6043458,412.31218 -8.4424947,410.35122 -9.2805803,408.84888 C -12.348585,403.44045 -16.397002,400.57809 -21.141178,400.57809 C -27.561714,400.57809 -32.029206,405.69396 -32.029206,413.06335 C -32.029206,415.46709 -31.191121,419.98203 -30.076224,423.13695 C -30.076224,423.58765 -30.076224,423.58765 -29.799477,423.73788 C -29.799477,424.03835 -29.657087,424.03835 -29.522667,424.19649 C -29.238012,424.49696 -29.103655,424.49696 -28.961328,424.49696 C -28.819001,424.6472 -28.257599,424.49696 -27.427358,424.03835 L -9.0038963,414.26522 z M -23.513297,433.81939 C -24.493837,434.42033 -24.636164,434.42033 -24.493837,434.87103 C -24.493837,435.1715 -24.493837,435.32173 -23.798015,436.22314 C -19.472787,442.84135 -13.748135,446.75535 -8.3001676,446.75535 C -4.1173302,446.75535 -0.34559698,443.59252 0.20789756,440.13714 L 0.35016148,439.22782 C 0.49248865,435.77244 3.1413554,433.36869 6.6362781,433.36869 C 10.400041,433.36869 13.048971,436.22314 13.048971,440.43761 C 13.191298,450.96191 2.0265225,459.2327 -11.79509,459.2327 C -33.982314,459.2327 -50.452667,443.29206 -50.594995,421.6346 C -50.594995,402.08043 -36.915772,388.84401 -16.816076,388.84401 C -2.5833596,388.84401 8.3046688,395.46222 14.448458,407.94748 C 15.286607,409.75029 15.563418,410.95216 15.563418,411.86147 C 15.563418,412.60474 15.286607,413.21358 14.448458,413.51405 L -23.513297,433.81939"
       id="path117"
       style="fill:#ffffff;fill-opacity:1;fill-rule:nonzero;stroke:none" />
    <path
       d="M 40.233397,447.17442 C 40.233397,449.2777 40.367817,449.88655 41.205966,450.93819 L 41.909695,451.83959 C 42.739937,452.89123 42.882264,453.6424 42.882264,454.69404 C 42.882264,457.25593 41.205966,458.30757 37.157612,458.30757 L 22.505757,458.30757 C 18.876415,458.30757 17.200117,457.25593 17.342444,455.00242 C 17.342444,454.54381 17.342444,453.94287 17.619255,453.34194 L 18.180656,451.83959 C 19.018742,449.58608 19.572236,447.62513 19.572236,445.07115 L 19.714563,403.70929 L 19.714563,402.80788 C 19.714563,402.20695 19.714563,401.45578 19.295489,400.7046 C 19.153225,399.64506 19.018742,399.79529 18.876415,399.34459 L 17.895939,397.84225 C 17.619255,397.39154 17.476927,396.79061 17.342444,396.18967 C 17.342444,393.78592 19.018742,392.42591 21.944419,392.42591 L 36.185043,392.27567 C 39.95665,392.27567 40.652535,393.18499 40.652535,398.29295 L 40.786892,398.59342 C 40.929219,399.49482 41.063639,399.49482 41.490684,399.49482 C 42.044115,399.34459 42.186505,399.34459 42.463189,398.89389 C 45.53113,394.23662 50.140949,391.37427 54.885252,391.37427 C 61.590379,391.37427 66.192291,395.4385 66.192291,401.15531 C 66.192291,407.01444 61.724799,411.52938 55.857821,411.52938 C 53.770292,411.52938 50.560024,411.07867 48.322324,410.3275 C 47.207491,409.8768 46.938651,409.8768 46.653997,409.8768 C 43.166918,409.8768 40.233397,414.54197 40.233397,419.64993 L 40.233397,447.17442"
       id="path119"
       style="fill:#ffffff;fill-opacity:1;fill-rule:nonzero;stroke:none" />
    <path
       d="M 64.160239,434.59428 C 63.606681,434.89475 62.910922,435.19522 62.07271,435.94639 C 61.368982,436.3971 60.81555,436.8478 60.396413,437.14827 L 59.835011,437.7492 C 59.558264,438.35014 59.28158,438.35014 58.720115,438.35014 C 58.158713,438.04967 57.881966,438.04967 57.881966,437.44873 L 57.881966,426.16535 C 57.881966,423.61137 59.558264,422.10903 64.025819,419.54714 L 66.674622,418.0448 C 69.608143,416.39222 72.399337,414.88988 76.02868,412.02752 C 76.724565,411.43449 77.001249,411.43449 77.285903,411.43449 C 77.839398,411.58473 77.981788,411.58473 77.981788,412.17776 L 77.839398,420.45645 C 77.704978,425.71465 77.001249,427.07467 72.541728,429.62865 L 64.160239,434.59428"
       id="path121"
       style="fill:#ffffff;fill-opacity:1;fill-rule:nonzero;stroke:none" />
    <path
       d="M 109.22254,411.07867 C 109.22254,412.43078 109.36493,412.73125 110.19517,412.88148 C 110.75651,412.88148 112.29054,413.03172 113.40538,413.03172 C 123.17857,413.03172 128.19949,405.81257 128.19949,391.9752 C 128.19949,375.58386 123.73991,368.51494 112.99421,368.51494 C 111.03326,368.51494 109.91842,368.81541 109.49929,368.96565 C 109.36493,369.26611 109.36493,369.41635 109.36493,370.46799 L 109.22254,411.07867 z M 109.08027,444.77068 C 109.08027,448.827 109.08027,449.2777 109.91842,451.08842 L 110.75651,453.04147 C 110.8989,453.34194 110.8989,453.79264 110.8989,454.24334 C 110.8989,457.1057 108.80346,458.30757 103.22114,458.30757 L 89.541917,458.30757 C 86.75066,458.30757 85.351109,457.25593 85.351109,455.14475 C 85.351109,454.24334 85.493437,453.6424 85.770247,453.04147 L 86.331649,451.83959 C 87.02747,450.62981 87.580965,449.12747 87.580965,448.22606 L 87.865619,369.86705 L 87.723229,369.11588 C 87.723229,367.76377 87.304154,366.71213 87.02747,365.51026 L 86.608396,364.45862 C 85.770247,362.79813 85.635764,361.89673 85.770247,361.14556 C 85.770247,358.58367 86.89305,357.8325 90.237739,357.8325 L 121.50221,357.98273 C 138.81078,357.98273 151.09045,371.3773 151.09045,390.02216 C 151.09045,404.61069 143.97415,417.09595 133.22839,421.15227 C 128.19949,422.96299 121.92128,423.8644 114.52818,423.8644 L 110.06069,423.8644 C 109.49929,424.16487 109.22254,424.16487 109.22254,424.7658 L 109.08027,425.51697 L 109.08027,444.77068"
       id="path123"
       style="fill:#ffffff;fill-opacity:1;fill-rule:nonzero;stroke:none" />
    <path
       d="M 175.98195,447.17442 C 175.98195,449.2777 176.12421,449.88655 176.96243,450.93819 L 177.65825,451.83959 C 178.4964,452.89123 178.63866,453.6424 178.63866,454.69404 C 178.63866,457.25593 176.96243,458.30757 172.91395,458.30757 L 158.25431,458.30757 C 154.62491,458.30757 152.95651,457.25593 153.09093,455.00242 C 153.09093,454.54381 153.09093,453.94287 153.37559,453.34194 L 153.92908,451.83959 C 154.7673,449.58608 155.32863,447.62513 155.32863,445.07115 L 155.46305,403.70929 L 155.46305,402.80788 C 155.46305,402.20695 155.46305,401.45578 155.04398,400.7046 C 154.90956,399.64506 154.7673,399.79529 154.62491,399.34459 L 153.65234,397.84225 C 153.37559,397.39154 153.23326,396.79061 153.09093,396.18967 C 153.09093,393.78592 154.7673,392.42591 157.70075,392.42591 L 171.93353,392.27567 C 175.70514,392.27567 176.40887,393.18499 176.40887,398.29295 L 176.54329,398.59342 C 176.68568,399.49482 176.8201,399.49482 177.24702,399.49482 C 177.80051,399.34459 177.93493,399.34459 178.21959,398.89389 C 181.28759,394.23662 185.89735,391.37427 190.64165,391.37427 C 197.33887,391.37427 201.94078,395.4385 201.94078,401.15531 C 201.94078,407.01444 197.47329,411.52938 191.61416,411.52938 C 189.52669,411.52938 186.31642,411.07867 184.07879,410.3275 C 182.96389,409.8768 182.68708,409.8768 182.40242,409.8768 C 178.91541,409.8768 175.98195,414.54197 175.98195,419.64993 L 175.98195,447.17442"
       id="path125"
       style="fill:#ffffff;fill-opacity:1;fill-rule:nonzero;stroke:none" />
    <path
       d="M 291.42504,401.90648 C 291.42504,405.9628 288.21477,409.11772 284.30077,409.11772 C 280.95608,409.11772 278.29931,407.77352 275.92719,404.76093 C 273.27838,401.60601 270.06805,399.94553 266.85785,399.94553 C 258.76095,399.94553 254.43579,407.01444 254.43579,420.10063 C 254.43579,436.34965 261.40982,448.38421 270.76387,448.38421 C 276.06952,448.38421 280.25235,445.22138 281.79423,439.95527 C 282.90913,436.19942 285.0045,434.39661 288.21477,434.39661 C 291.55946,434.39661 294.07397,437.10082 294.07397,440.55621 C 294.07397,450.93819 281.79423,459.50945 267.26895,459.50945 C 247.1771,459.50945 232.38305,444.92091 232.38305,424.61557 C 232.38305,404.00976 247.59617,389.87193 269.64114,389.87193 C 282.49012,389.87193 291.28271,394.38686 291.28271,401.60601 L 291.42504,401.90648"
       id="path127"
       style="fill:#ffffff;fill-opacity:1;fill-rule:nonzero;stroke:none" />
    <path
       d="M 334.79529,415.26942 C 335.91018,414.66848 336.18693,414.36801 336.18693,413.91731 C 336.18693,413.31637 335.34878,411.36333 334.51854,409.85308 C 331.45066,404.44465 327.39427,401.58229 322.65004,401.58229 C 316.2295,401.58229 311.76201,406.69816 311.76201,414.06754 C 311.76201,416.47129 312.60016,420.98623 313.72296,424.14905 C 313.72296,424.59975 313.72296,424.59975 313.99971,424.74999 C 313.99971,425.05046 314.14203,425.05046 314.27645,425.20069 C 314.5532,425.50116 314.69559,425.50116 314.83785,425.50116 C 314.97227,425.65139 315.53368,425.50116 316.37183,425.05046 L 334.79529,415.26942 z M 320.25419,434.84731 C 319.27372,435.44825 319.1393,435.44825 319.27372,435.89895 C 319.27372,436.19942 319.27372,436.34965 319.97745,437.25106 C 324.30267,443.86927 330.02733,447.77536 335.46739,447.77536 C 339.65819,447.77536 343.42189,444.62044 343.9833,441.16506 L 344.12562,440.25574 C 344.26795,436.80036 346.91688,434.39661 350.40383,434.39661 C 354.1676,434.39661 356.82437,437.25106 356.82437,441.45762 C 356.9667,451.98983 345.79401,460.26062 331.98043,460.26062 C 309.78524,460.26062 293.32273,444.31997 293.1725,422.66252 C 293.1725,403.10835 306.85963,389.87193 326.95939,389.87193 C 341.19217,389.87193 352.08013,396.49014 358.22398,408.96749 C 359.05416,410.7782 359.33882,411.98008 359.33882,412.88148 C 359.33882,413.63266 359.05416,414.2415 358.22398,414.54197 L 320.25419,434.84731"
       id="path129"
       style="fill:#ffffff;fill-opacity:1;fill-rule:nonzero;stroke:none" />
    <path
       d="M 368.6059,397.88178 L 370.49568,397.88178 C 371.2232,397.88178 371.82407,397.70783 371.82407,396.79851 C 371.82407,395.8892 371.2232,395.71525 370.49568,395.71525 L 368.6059,395.71525 L 368.6059,397.88178 z M 366.34454,395.05105 C 366.34454,394.3157 366.87431,393.95197 367.48309,393.95197 L 370.61429,393.95197 C 372.87571,393.95197 374.23573,394.60826 374.23573,396.8934 C 374.23573,398.6883 373.0813,399.57389 371.91896,399.64506 L 373.68223,401.95392 C 373.91154,402.24648 373.98276,402.47579 373.98276,402.79207 C 373.98276,403.01347 373.73764,403.59859 372.92315,403.59859 C 372.35385,403.59859 372.10082,403.3851 371.67384,402.79207 L 369.36497,399.64506 L 368.6059,399.64506 L 368.6059,402.49951 C 368.6059,403.23486 368.10781,403.59859 367.48309,403.59859 C 366.87431,403.59859 366.34454,403.23486 366.34454,402.49951 L 366.34454,395.05105 z M 370.06877,405.78885 C 373.65857,405.78885 376.54459,402.98975 376.54459,398.86226 C 376.54459,394.73477 373.65857,391.93567 370.06877,391.93567 C 366.42355,391.93567 363.58491,394.73477 363.58491,398.86226 C 363.58491,402.98975 366.42355,405.78885 370.06877,405.78885 z M 370.06877,389.72169 C 374.88411,389.72169 379.40695,393.06638 379.40695,398.86226 C 379.40695,404.65814 374.88411,408.00282 370.06877,408.00282 C 365.22174,408.00282 360.72255,404.65814 360.72255,398.86226 C 360.72255,393.06638 365.22174,389.72169 370.06877,389.72169"
       id="path131"
       style="fill:#ffffff;fill-opacity:1;fill-rule:nonzero;stroke:none" />
    <path
       d="M 227.44897,446.12278 C 227.44897,448.97724 227.5913,449.58608 228.98294,452.14006 C 229.67883,453.49217 229.82109,454.09311 229.82109,454.85218 C 229.82109,457.40617 228.14486,458.30757 222.98148,458.30757 L 208.89116,458.30757 C 205.95763,458.30757 204.42366,457.25593 204.42366,455.29498 C 204.42366,454.39357 204.55802,453.79264 205.11949,452.59076 C 206.51107,450.78005 206.65339,449.73631 206.65339,445.82232 L 206.51107,406.72188 C 206.51107,403.40882 205.81524,400.99717 204.55802,398.29295 C 204.28134,397.54178 204.13895,397.09108 204.28134,396.3399 C 204.28134,393.93616 206.23432,392.42591 209.7214,392.42591 L 224.38103,392.42591 C 227.5913,392.42591 229.12533,393.48545 229.12533,395.58873 C 229.12533,396.18967 228.98294,396.49014 228.56387,397.54178 C 227.44897,400.09576 227.44897,400.99717 227.44897,403.70929 L 227.44897,446.12278"
       id="path133"
       style="fill:#ffffff;fill-opacity:1;fill-rule:nonzero;stroke:none" />
    <path
       d="M 216.32373,388.19563 C 222.68892,388.19563 227.86014,382.83464 227.86014,376.22433 C 227.86014,369.61402 222.68892,364.25303 216.32373,364.25303 C 209.94273,364.25303 204.77151,369.61402 204.77151,376.22433 C 204.77151,382.83464 209.94273,388.19563 216.32373,388.19563"
       id="path135"
       style="fill:#ffffff;fill-opacity:1;fill-rule:nonzero;stroke:none" />
    <path
       d="M -175.68483,446.12278 C -175.68483,448.97724 -175.54243,449.58608 -174.15085,452.14006 C -173.44706,453.49217 -173.31264,454.09311 -173.31264,454.85218 C -173.31264,457.40617 -174.98894,458.30757 -180.15232,458.30757 L -194.24271,458.30757 C -197.17623,458.30757 -198.71013,457.25593 -198.71013,455.29498 C -198.71013,454.39357 -198.57578,453.79264 -198.01438,452.59076 C -196.62273,450.78005 -196.48034,449.73631 -196.48034,445.82232 L -196.62273,406.72188 C -196.62273,403.40882 -197.31849,400.99717 -198.57578,398.29295 C -198.85246,397.54178 -198.99479,397.09108 -198.85246,396.3399 C -198.85246,393.93616 -196.89948,392.42591 -193.41246,392.42591 L -178.7527,392.42591 C -175.54243,392.42591 -174.00853,393.48545 -174.00853,395.58873 C -174.00853,396.18967 -174.15085,396.49014 -174.56987,397.54178 C -175.68483,400.09576 -175.68483,400.99717 -175.68483,403.70929 L -175.68483,446.12278"
       id="path137"
       style="fill:#ffffff;fill-opacity:1;fill-rule:nonzero;stroke:none" />
    <path
       d="M -185.66354,388.19563 C -179.29045,388.19563 -174.11923,382.83464 -174.11923,376.22433 C -174.11923,369.61402 -179.29045,364.25303 -185.66354,364.25303 C -192.03664,364.25303 -197.20786,369.61402 -197.20786,376.22433 C -197.20786,382.83464 -192.03664,388.19563 -185.66354,388.19563"
       id="path139"
       style="fill:#ffffff;fill-opacity:1;fill-rule:nonzero;stroke:none" />
  </g>
</svg>
